<svg width="280" height="204" viewBox="0 0 280 204" fill="none" xmlns="http://www.w3.org/2000/svg">
<path d="M130.046 181.328H146V199.328C132.173 198.428 129.603 186.953 130.046 181.328Z" fill="#A62B26"/>
<path d="M133 34.3282H146V48.3282H133V34.3282Z" fill="#A62B26"/>
<path d="M276 63.3282H189L162 35.8282H150" stroke="#F37873" stroke-width="7"/>
<path d="M280 59.8282H190L163 32.3282H130" stroke="#4D1717" stroke-width="7"/>
<path d="M147 180.828H132.5" stroke="#4D1717" stroke-width="3.5"/>
<path d="M147 172.328H132.5" stroke="#4D1717" stroke-width="3.5"/>
<path d="M147 55.8282H132.5" stroke="#4D1717" stroke-width="3.5"/>
<path d="M147 47.3282H132.5" stroke="#4D1717" stroke-width="3.5"/>
<path fill-rule="evenodd" clip-rule="evenodd" d="M273 60.3282V186.328C273 191.851 268.523 196.328 263 196.328H143C137.477 196.328 133 191.851 133 186.328V29H126V186.328C126 195.717 133.611 203.328 143 203.328H263C272.389 203.328 280 195.717 280 186.328V60.3282H273Z" fill="#4D1717"/>
<path fill-rule="evenodd" clip-rule="evenodd" d="M273 62.3853H190L163 34.8853H133V186.328C133 191.851 137.477 196.328 143 196.328H263C268.523 196.328 273 191.851 273 186.328V62.3853Z" fill="#EE3E37"/>
<path d="M149 32.3282V199.328" stroke="#4D1717" stroke-width="7"/>
<rect x="7" y="7" width="140" height="190" rx="10" fill="#EE3E37"/>
<path d="M149.954 182H134V200C147.827 199.1 150.397 187.625 149.954 182Z" fill="#A62B26"/>
<path d="M147 35H134V49H147V35Z" fill="#A62B26"/>
<path d="M4 64H91L118 36.5H130" stroke="#F37873" stroke-width="7"/>
<path d="M7 60.5H90L117 33H150" stroke="#4D1717" stroke-width="7"/>
<path d="M133 181.5H147.5" stroke="#4D1717" stroke-width="3.5"/>
<path d="M133 173H147.5" stroke="#4D1717" stroke-width="3.5"/>
<path d="M133 56.5H147.5" stroke="#4D1717" stroke-width="3.5"/>
<path d="M133 48H147.5" stroke="#4D1717" stroke-width="3.5"/>
<circle opacity="0.5" cx="33" cy="31" r="12.75" fill="white" stroke="#4D1717" stroke-width="3.5"/>
<circle cx="33" cy="31" r="9.5" fill="#5FC7FB" stroke="#17264D"/>
<circle cx="31" cy="30" r="3" fill="#AFE3FD"/>
<circle cx="136" cy="18" r="4" fill="#77A946" stroke="#4D1717" stroke-width="2"/>
<circle cx="123" cy="18" r="4" fill="#F5A623" stroke="#4D1717" stroke-width="2"/>
<circle cx="110" cy="18" r="4" fill="#CB0000" stroke="#4D1717" stroke-width="2"/>
<rect x="21.25" y="81.25" width="92.5" height="97.5" rx="3.25" fill="#6BEAEA" stroke="#4D1717" stroke-width="3.5"/>
<rect x="3.5" y="3.5" width="147" height="197" rx="13.5" stroke="#4D1717" stroke-width="7"/>
<path d="M131 33V200" stroke="#4D1717" stroke-width="7"/>
<path d="M83.163 142.179C83.163 150.555 76.3741 157.343 68.0002 157.343C59.6263 157.343 52.8374 150.554 52.8374 142.179C52.8374 133.805 59.6263 118.412 68.0002 118.412C76.3741 118.412 83.163 133.806 83.163 142.179Z" fill="#F9F9E4"/>
<path d="M58.6042 150.783C60.0032 152.312 61.5444 153.06 60.7252 153.81C59.9056 154.56 58.1067 153.928 56.7081 152.398C55.3091 150.868 54.8391 149.02 55.6587 148.271C56.4779 147.522 57.2048 149.252 58.6042 150.783Z" fill="#E5E4C3"/>
<path d="M77.3957 150.783C75.9967 152.312 74.4555 153.06 75.2742 153.81C76.0943 154.56 77.8928 153.928 79.2918 152.398C80.6908 150.868 81.1608 149.02 80.3412 148.271C79.5216 147.522 78.7947 149.252 77.3957 150.783Z" fill="#D8D593"/>
<path d="M76.906 146.105C74.9328 150.379 70.9034 152.722 67.9063 151.338C64.9087 149.955 66.3016 147.438 68.2747 143.164C70.2474 138.89 72.053 134.479 75.0505 135.862C78.0476 137.246 78.8786 141.832 76.906 146.105Z" fill="#E5E4C3"/>
<path d="M75.0504 135.863C72.0524 134.479 70.2473 138.891 68.2746 143.165C68.1814 143.366 68.09 143.563 68.0002 143.756V151.377C70.9882 152.671 74.9541 150.336 76.9063 146.106C78.8785 141.832 78.0475 137.246 75.0504 135.863Z" fill="#D8D593"/>
<path d="M59.2808 131.038C59.8127 131.038 60.2439 130.607 60.2439 130.075C60.2439 129.543 59.8127 129.111 59.2808 129.111C58.7488 129.111 58.3176 129.543 58.3176 130.075C58.3176 130.607 58.7488 131.038 59.2808 131.038Z" fill="#E5E4C3"/>
<path d="M63.1337 125.466C63.1337 125.675 62.9648 125.844 62.7565 125.844C62.5486 125.844 62.3801 125.675 62.3801 125.466C62.3801 125.26 62.549 125.09 62.7565 125.09C62.9648 125.09 63.1337 125.26 63.1337 125.466Z" fill="#E5E4C3"/>
<path d="M60.7883 136.148C61.0889 136.148 61.3326 135.904 61.3326 135.604C61.3326 135.303 61.0889 135.059 60.7883 135.059C60.4876 135.059 60.2439 135.303 60.2439 135.604C60.2439 135.904 60.4876 136.148 60.7883 136.148Z" fill="#E5E4C3"/>
<path d="M69.2772 154.126C69.5781 154.126 69.822 153.882 69.822 153.581C69.822 153.28 69.5781 153.036 69.2772 153.036C68.9763 153.036 68.7324 153.28 68.7324 153.581C68.7324 153.882 68.9763 154.126 69.2772 154.126Z" fill="#D8D593"/>
<path d="M66.7145 153.581C67.0152 153.581 67.2589 153.337 67.2589 153.037C67.2589 152.736 67.0152 152.492 66.7145 152.492C66.4139 152.492 66.1702 152.736 66.1702 153.037C66.1702 153.337 66.4139 153.581 66.7145 153.581Z" fill="#E5E4C3"/>
<path d="M74.4674 128.491C75.0825 128.491 75.5811 127.992 75.5811 127.377C75.5811 126.762 75.0825 126.264 74.4674 126.264C73.8524 126.264 73.3538 126.762 73.3538 127.377C73.3538 127.992 73.8524 128.491 74.4674 128.491Z" fill="#D8D593"/>
<path d="M77.6268 133.216C78.2283 133.216 78.716 132.729 78.716 132.127C78.716 131.525 78.2283 131.038 77.6268 131.038C77.0252 131.038 76.5376 131.525 76.5376 132.127C76.5376 132.729 77.0252 133.216 77.6268 133.216Z" fill="#D8D593"/>
<path d="M62.1241 147.817C62.7254 147.817 63.2129 147.33 63.2129 146.728C63.2129 146.127 62.7254 145.64 62.1241 145.64C61.5228 145.64 61.0354 146.127 61.0354 146.728C61.0354 147.33 61.5228 147.817 62.1241 147.817Z" fill="#E5E4C3"/>
<path d="M62.1799 102H57.6061C57.2433 102 56.9497 102.294 56.9497 102.656V109.325C56.9497 109.687 57.2433 109.981 57.6061 109.981H62.1795C62.5422 109.981 62.8359 109.687 62.8359 109.325V102.656C62.8363 102.294 62.5422 102 62.1799 102ZM61.5235 108.668H58.2629V103.313H61.5235V108.668Z" fill="#4D1717"/>
<path d="M70.4238 102C70.0611 102 69.7674 102.294 69.7674 102.656V105.334H66.5069V102.656C66.5069 102.294 66.2133 102 65.8505 102C65.4877 102 65.1941 102.294 65.1941 102.656V109.325C65.1941 109.687 65.4877 109.981 65.8505 109.981C66.2133 109.981 66.5069 109.687 66.5069 109.325V106.647H69.7674V109.325C69.7674 109.687 70.0611 109.981 70.4238 109.981C70.7866 109.981 71.0802 109.687 71.0802 109.325V102.656C71.0802 102.294 70.7866 102 70.4238 102Z" fill="#4D1717"/>
<path d="M78.3938 102H73.8205C73.4577 102 73.1641 102.294 73.1641 102.656V104.053C73.1641 104.415 73.4577 104.709 73.8205 104.709C74.1832 104.709 74.4769 104.415 74.4769 104.053V103.313H77.7374V105.334H76.1065C75.7437 105.334 75.4501 105.628 75.4501 105.99C75.4501 106.001 75.4527 106.01 75.4531 106.02C75.4527 106.03 75.4501 106.039 75.4501 106.049V107.474C75.4501 107.836 75.7437 108.13 76.1065 108.13C76.4692 108.13 76.7629 107.836 76.7629 107.474V106.646H78.3938C78.7566 106.646 79.0502 106.352 79.0502 105.99V102.656C79.0502 102.294 78.7566 102 78.3938 102Z" fill="#4D1717"/>
<path d="M75.6406 108.859C75.5224 108.982 75.4524 109.153 75.4524 109.324C75.4524 109.498 75.5224 109.665 75.6449 109.788C75.7631 109.91 75.9338 109.98 76.1088 109.98C76.2795 109.98 76.4501 109.91 76.5726 109.788C76.6952 109.665 76.7652 109.499 76.7652 109.324C76.7652 109.153 76.6952 108.982 76.5683 108.859C76.3276 108.614 75.8856 108.619 75.6406 108.859Z" fill="#4D1717"/>
<path d="M79.2943 126.834C76.0123 120.98 72.0013 117.755 67.9999 117.755C63.9985 117.755 59.987 120.98 56.7054 126.834C53.9569 131.738 52.1807 137.762 52.1807 142.179C52.1807 150.903 59.2772 158 67.9999 158C76.7225 158 83.8191 150.903 83.8191 142.179C83.8195 137.762 82.0433 131.738 79.2943 126.834ZM67.9999 156.687C60.001 156.687 53.4935 150.179 53.4935 142.18C53.4935 134.37 60.0614 119.069 67.9999 119.069C74.6238 119.069 80.2898 129.719 81.986 137.784L80.4461 136.243C80.3231 136.12 80.1559 136.051 79.9818 136.051C79.8076 136.051 79.6409 136.12 79.5175 136.243L77.3461 138.415L75.1752 136.243C74.9288 135.997 74.4925 135.997 74.2466 136.243L72.0761 138.415L69.9052 136.243C69.6588 135.997 69.223 135.997 68.9766 136.243L66.8061 138.415L64.6352 136.243C64.3888 135.997 63.9534 135.997 63.7066 136.243L61.0718 138.879C60.8158 139.136 60.8158 139.551 61.0718 139.807C61.2 139.935 61.3681 139.999 61.5361 139.999C61.7041 139.999 61.8722 139.935 62.0004 139.807L64.1709 137.635L66.3422 139.807C66.4705 139.935 66.6381 139.999 66.8061 139.999C66.9741 139.999 67.1422 139.935 67.2704 139.807L69.4404 137.636L71.6118 139.807C71.74 139.935 71.9076 139.999 72.0757 139.999C72.2437 139.999 72.4117 139.935 72.54 139.807L74.71 137.636L76.8805 139.807C77.0087 139.935 77.1768 139.999 77.3448 139.999C77.5128 139.999 77.6809 139.935 77.8087 139.807L79.98 137.636L82.1501 139.807C82.2092 139.866 82.2787 139.909 82.3509 139.941C82.4503 140.735 82.5045 141.488 82.5045 142.18C82.5067 150.179 75.9992 156.687 67.9999 156.687Z" fill="#4D1717"/>
</svg>